<mxfile host="app.diagrams.net" modified="2021-10-23T09:30:27.011Z" agent="5.0 (Macintosh; Intel Mac OS X 10_15_7) AppleWebKit/537.36 (KHTML, like Gecko) Chrome/94.0.4606.71 Safari/537.36" etag="JnNdgCEqXA4NrgkeKBAC" version="15.5.8" type="github">
  <diagram id="J5afRNMc_5lDhFZFJLOe" name="Page-1">
    <mxGraphModel dx="1298" dy="736" grid="1" gridSize="10" guides="1" tooltips="1" connect="1" arrows="1" fold="1" page="1" pageScale="1" pageWidth="827" pageHeight="1169" math="0" shadow="0">
      <root>
        <mxCell id="0" />
        <mxCell id="1" parent="0" />
        <mxCell id="8wUaBbe2eY1SSpiluS98-4" style="edgeStyle=orthogonalEdgeStyle;rounded=0;orthogonalLoop=1;jettySize=auto;html=1;exitX=1;exitY=0.5;exitDx=0;exitDy=0;" edge="1" parent="1" source="8wUaBbe2eY1SSpiluS98-1" target="8wUaBbe2eY1SSpiluS98-2">
          <mxGeometry relative="1" as="geometry" />
        </mxCell>
        <mxCell id="8wUaBbe2eY1SSpiluS98-1" value="" style="rounded=0;whiteSpace=wrap;html=1;" vertex="1" parent="1">
          <mxGeometry x="230" y="130" width="120" height="60" as="geometry" />
        </mxCell>
        <mxCell id="8wUaBbe2eY1SSpiluS98-2" value="" style="shape=cylinder3;whiteSpace=wrap;html=1;boundedLbl=1;backgroundOutline=1;size=15;" vertex="1" parent="1">
          <mxGeometry x="490" y="130" width="60" height="80" as="geometry" />
        </mxCell>
      </root>
    </mxGraphModel>
  </diagram>
</mxfile>
